<svg width="550" height="77" xmlns="http://www.w3.org/2000/svg" fill="none">
 <mask id="path-1-outside-1_3092_92384" maskUnits="userSpaceOnUse" x="0" y="0" width="845" height="77" fill="black">
  <rect fill="white" width="845" height="77" id="svg_1"/>
  <path d="m72.06,2.1l0,18.81l-22.66,0l0,53.79l-25.63,0l0,-53.79l-22.77,0l0,-18.81l71.06,0z" id="svg_2"/>
  <path d="m79.7102,74.7l0,-72.6l60.2798,0l0,18.81l-34.65,0l0,9.02l27.94,0l0,17.38l-27.94,0l0,8.58l35.97,0l0,18.81l-61.5998,0z" id="svg_3"/>
  <path d="m180.358,1c6.966,0 13.2,0.88 18.7,2.64c5.573,1.68667 10.486,4.25333 14.74,7.7l-10.34,16.5c-3.447,-2.42 -7.077,-4.3633 -10.89,-5.83c-3.74,-1.4667 -7.81,-2.2 -12.21,-2.2c-1.907,0 -3.447,0.1467 -4.62,0.44c-1.1,0.2933 -1.907,0.6967 -2.42,1.21c-0.44,0.5133 -0.66,1.1 -0.66,1.76c0,0.88 0.66,1.54 1.98,1.98c1.393,0.44 3.116,0.9167 5.17,1.43l10.01,2.31c7.406,1.6867 12.98,4.18 16.72,7.48c3.813,3.3 5.72,7.8833 5.72,13.75c0,5.8667 -1.43,10.7067 -4.29,14.52c-2.86,3.74 -6.747,6.5267 -11.66,8.36c-4.84,1.8333 -10.34,2.75 -16.5,2.75c-4.62,0 -9.24,-0.4033 -13.86,-1.21c-4.62,-0.88 -8.91,-2.1267 -12.87,-3.74c-3.96,-1.6867 -7.37,-3.7033 -10.23,-6.05l10.12,-16.83c2.126,1.6867 4.693,3.2267 7.7,4.62c3.006,1.32 6.123,2.3833 9.35,3.19c3.226,0.8067 6.233,1.21 9.02,1.21c1.76,0 3.153,-0.1467 4.18,-0.44c1.026,-0.2933 1.723,-0.66 2.09,-1.1c0.44,-0.5133 0.66,-1.1 0.66,-1.76c0,-1.0267 -0.44,-1.7967 -1.32,-2.31c-0.807,-0.5133 -2.31,-1.0267 -4.51,-1.54l-11,-2.42c-3.887,-0.88 -7.59,-2.0533 -11.11,-3.52c-3.52,-1.4667 -6.38,-3.5933 -8.58,-6.38c-2.2,-2.86 -3.3,-6.71 -3.3,-11.55c0,-4.9867 1.32,-9.35 3.96,-13.09c2.713,-3.74 6.6,-6.63667 11.66,-8.69c5.133,-2.12667 11.33,-3.19 18.59,-3.19z" id="svg_4"/>
  <path d="m287.656,2.1l0,18.81l-22.66,0l0,53.79l-25.63,0l0,-53.79l-22.77,0l0,-18.81l71.06,0z" id="svg_5"/>
  <path d="m320.936,2.1l0,72.6l-25.63,0l0,-72.6l25.63,0z" id="svg_6"/>
  <path d="m425.217,2.1l0,72.6l-22.33,0l0,-25.19l0.33,-24.42l-0.33,0l-14.08,49.61l-20.46,0l-13.86,-49.61l-0.44,0l0.33,24.42l0,25.19l-22.44,0l0,-72.6l35.86,0l8.36,32.23l3.19,13.53l0.22,0l3.19,-13.53l8.36,-32.23l34.1,0z" id="svg_7"/>
  <path d="m470.893,1c7.7,0 14.3,1.46667 19.8,4.4c5.5,2.93333 9.717,7.1867 12.65,12.76c2.934,5.5733 4.4,12.32 4.4,20.24c0,7.92 -1.466,14.6667 -4.4,20.24c-2.933,5.5733 -7.15,9.8267 -12.65,12.76c-5.5,2.9333 -12.1,4.4 -19.8,4.4c-7.626,0 -14.226,-1.4667 -19.8,-4.4c-5.5,-2.9333 -9.753,-7.1867 -12.76,-12.76c-2.933,-5.5733 -4.4,-12.32 -4.4,-20.24c0,-7.92 1.467,-14.6667 4.4,-20.24c3.007,-5.5733 7.26,-9.82667 12.76,-12.76c5.574,-2.93333 12.174,-4.4 19.8,-4.4zm0,19.25c-2.493,0 -4.546,0.66 -6.16,1.98c-1.54,1.2467 -2.713,3.19 -3.52,5.83c-0.733,2.64 -1.1,6.0867 -1.1,10.34c0,4.18 0.367,7.6267 1.1,10.34c0.807,2.64 1.98,4.62 3.52,5.94c1.614,1.2467 3.667,1.87 6.16,1.87c2.494,0 4.51,-0.6233 6.05,-1.87c1.614,-1.32 2.787,-3.3 3.52,-5.94c0.734,-2.7133 1.1,-6.16 1.1,-10.34c0,-4.2533 -0.366,-7.7 -1.1,-10.34c-0.733,-2.64 -1.906,-4.5833 -3.52,-5.83c-1.54,-1.32 -3.556,-1.98 -6.05,-1.98z" id="svg_8"/>
  <path d="m587.44,2.1l0,72.6l-27.72,0l-17.38,-33l-3.96,-8.91l-0.22,0l0.44,14.96l0,26.95l-22.22,0l0,-72.6l27.72,0l17.38,33.11l3.96,8.8l0.22,0l-0.44,-14.96l0,-26.95l22.22,0z" id="svg_9"/>
  <path d="m624.08,2.1l0,72.6l-25.63,0l0,-72.6l25.63,0z" id="svg_10"/>
  <path d="m706.471,74.7l-26.18,0l-3.3,-13.86l-19.58,0l-3.41,13.86l-25.52,0l23.54,-72.6l30.8,0l23.65,72.6zm-45.21,-29.81l11.99,0l-5.94,-25.19l-6.05,25.19z" id="svg_11"/>
  <path d="m736.551,55.89l32.89,0l0,18.81l-58.52,0l0,-72.6l25.63,0l0,53.79z" id="svg_12"/>
  <path d="m809.313,1c6.966,0 13.2,0.88 18.7,2.64c5.573,1.68667 10.486,4.25333 14.74,7.7l-10.34,16.5c-3.447,-2.42 -7.077,-4.3633 -10.89,-5.83c-3.74,-1.4667 -7.81,-2.2 -12.21,-2.2c-1.907,0 -3.447,0.1467 -4.62,0.44c-1.1,0.2933 -1.907,0.6967 -2.42,1.21c-0.44,0.5133 -0.66,1.1 -0.66,1.76c0,0.88 0.66,1.54 1.98,1.98c1.393,0.44 3.116,0.9167 5.17,1.43l10.01,2.31c7.406,1.6867 12.98,4.18 16.72,7.48c3.813,3.3 5.72,7.8833 5.72,13.75c0,5.8667 -1.43,10.7067 -4.29,14.52c-2.86,3.74 -6.747,6.5267 -11.66,8.36c-4.84,1.8333 -10.34,2.75 -16.5,2.75c-4.62,0 -9.24,-0.4033 -13.86,-1.21c-4.62,-0.88 -8.91,-2.1267 -12.87,-3.74c-3.96,-1.6867 -7.37,-3.7033 -10.23,-6.05l10.12,-16.83c2.126,1.6867 4.693,3.2267 7.7,4.62c3.006,1.32 6.123,2.3833 9.35,3.19c3.226,0.8067 6.233,1.21 9.02,1.21c1.76,0 3.153,-0.1467 4.18,-0.44c1.026,-0.2933 1.723,-0.66 2.09,-1.1c0.44,-0.5133 0.66,-1.1 0.66,-1.76c0,-1.0267 -0.44,-1.7967 -1.32,-2.31c-0.807,-0.5133 -2.31,-1.0267 -4.51,-1.54l-11,-2.42c-3.887,-0.88 -7.59,-2.0533 -11.11,-3.52c-3.52,-1.4667 -6.38,-3.5933 -8.58,-6.38c-2.2,-2.86 -3.3,-6.71 -3.3,-11.55c0,-4.9867 1.32,-9.35 3.96,-13.09c2.713,-3.74 6.6,-6.63667 11.66,-8.69c5.133,-2.12667 11.33,-3.19 18.59,-3.19z" id="svg_13"/>
 </mask>

 <g>
  <title>Layer 1</title>
  <text transform="matrix(6.1549 0 0 4.4786 -1208.89 -72.4434)" stroke="white" xml:space="preserve" text-anchor="start" font-family="'Tourney'" font-size="24" fill="#ffffff" id="svg_14" y="33.17968" x="196.66637" stroke-opacity="0.3" stroke-width="0">VIDEOS</text>
 </g>
</svg>